<mxfile host="app.diagrams.net" modified="2021-07-15T23:45:38.864Z" agent="5.0 (Windows NT 10.0; Win64; x64) AppleWebKit/537.36 (KHTML, like Gecko) Chrome/91.0.4472.124 Safari/537.36 Edg/91.0.864.67" etag="SkJg8RCGyEznl458gpWV" version="14.8.4" type="github">
  <diagram id="-N9R1DFv4vVeJDgOMUEk" name="Page-1">
    <mxGraphModel dx="782" dy="468" grid="1" gridSize="10" guides="1" tooltips="1" connect="1" arrows="1" fold="1" page="1" pageScale="1" pageWidth="827" pageHeight="1169" math="0" shadow="0">
      <root>
        <mxCell id="0" />
        <mxCell id="1" parent="0" />
        <mxCell id="l0epzVS-xQigdUnoJ-Vp-2" value="Información inicial" style="swimlane;fontStyle=0;childLayout=stackLayout;horizontal=1;startSize=26;horizontalStack=0;resizeParent=1;resizeParentMax=0;resizeLast=0;collapsible=1;marginBottom=0;fillColor=#d5e8d4;strokeColor=#82b366;" vertex="1" parent="1">
          <mxGeometry x="160" y="100" width="530" height="150" as="geometry" />
        </mxCell>
        <mxCell id="l0epzVS-xQigdUnoJ-Vp-3" value="Caso de uso    Comprar profucto  " style="text;strokeColor=#d6b656;fillColor=#fff2cc;align=left;verticalAlign=top;spacingLeft=4;spacingRight=4;overflow=hidden;rotatable=0;points=[[0,0.5],[1,0.5]];portConstraint=eastwest;" vertex="1" parent="l0epzVS-xQigdUnoJ-Vp-2">
          <mxGeometry y="26" width="530" height="26" as="geometry" />
        </mxCell>
        <mxCell id="l0epzVS-xQigdUnoJ-Vp-4" value="Breve descripción   Permite comprar productos y pagarlos con tarjeta" style="text;strokeColor=#d79b00;fillColor=#ffe6cc;align=left;verticalAlign=top;spacingLeft=4;spacingRight=4;overflow=hidden;rotatable=0;points=[[0,0.5],[1,0.5]];portConstraint=eastwest;" vertex="1" parent="l0epzVS-xQigdUnoJ-Vp-2">
          <mxGeometry y="52" width="530" height="26" as="geometry" />
        </mxCell>
        <mxCell id="l0epzVS-xQigdUnoJ-Vp-8" value="&lt;span&gt;Actores&amp;nbsp; &amp;nbsp; &amp;nbsp; &amp;nbsp; &amp;nbsp; Cliente -&amp;nbsp; Almacén&amp;nbsp;&lt;/span&gt;" style="text;html=1;strokeColor=#d6b656;fillColor=#fff2cc;align=left;verticalAlign=middle;whiteSpace=wrap;rounded=0;" vertex="1" parent="l0epzVS-xQigdUnoJ-Vp-2">
          <mxGeometry y="78" width="530" height="20" as="geometry" />
        </mxCell>
        <mxCell id="l0epzVS-xQigdUnoJ-Vp-5" value="Pre condición    El cliente debe estar en el almacén" style="text;strokeColor=#d79b00;fillColor=#ffe6cc;align=left;verticalAlign=top;spacingLeft=4;spacingRight=4;overflow=hidden;rotatable=0;points=[[0,0.5],[1,0.5]];portConstraint=eastwest;" vertex="1" parent="l0epzVS-xQigdUnoJ-Vp-2">
          <mxGeometry y="98" width="530" height="32" as="geometry" />
        </mxCell>
        <mxCell id="l0epzVS-xQigdUnoJ-Vp-9" value="Post condición&amp;nbsp; &amp;nbsp; Inicia el proceso de compra en el almacén" style="text;html=1;strokeColor=#d6b656;fillColor=#fff2cc;align=left;verticalAlign=middle;whiteSpace=wrap;rounded=0;" vertex="1" parent="l0epzVS-xQigdUnoJ-Vp-2">
          <mxGeometry y="130" width="530" height="20" as="geometry" />
        </mxCell>
        <mxCell id="l0epzVS-xQigdUnoJ-Vp-10" value="Flujo de eventos normal" style="swimlane;fontStyle=0;childLayout=stackLayout;horizontal=1;startSize=26;horizontalStack=0;resizeParent=1;resizeParentMax=0;resizeLast=0;collapsible=1;marginBottom=0;fillColor=#d5e8d4;strokeColor=#82b366;" vertex="1" parent="1">
          <mxGeometry x="160" y="230" width="530" height="160" as="geometry" />
        </mxCell>
        <mxCell id="l0epzVS-xQigdUnoJ-Vp-11" value=" Nro.                                                     Descripción " style="text;strokeColor=#b46504;fillColor=#fad7ac;align=left;verticalAlign=top;spacingLeft=4;spacingRight=4;overflow=hidden;rotatable=0;points=[[0,0.5],[1,0.5]];portConstraint=eastwest;" vertex="1" parent="l0epzVS-xQigdUnoJ-Vp-10">
          <mxGeometry y="26" width="530" height="26" as="geometry" />
        </mxCell>
        <mxCell id="l0epzVS-xQigdUnoJ-Vp-12" value="    1                     Cliente escanea los productos  " style="text;strokeColor=#d6b656;fillColor=#fff2cc;align=left;verticalAlign=top;spacingLeft=4;spacingRight=4;overflow=hidden;rotatable=0;points=[[0,0.5],[1,0.5]];portConstraint=eastwest;" vertex="1" parent="l0epzVS-xQigdUnoJ-Vp-10">
          <mxGeometry y="52" width="530" height="26" as="geometry" />
        </mxCell>
        <mxCell id="l0epzVS-xQigdUnoJ-Vp-13" value="    2                      Almacén revisa si existe, en caso de que no se bloquea" style="text;strokeColor=#d79b00;fillColor=#ffe6cc;align=left;verticalAlign=top;spacingLeft=4;spacingRight=4;overflow=hidden;rotatable=0;points=[[0,0.5],[1,0.5]];portConstraint=eastwest;" vertex="1" parent="l0epzVS-xQigdUnoJ-Vp-10">
          <mxGeometry y="78" width="530" height="22" as="geometry" />
        </mxCell>
        <mxCell id="l0epzVS-xQigdUnoJ-Vp-14" value="&amp;nbsp; &amp;nbsp; &amp;nbsp;3&amp;nbsp;&amp;nbsp;&lt;span style=&quot;white-space: pre&quot;&gt;	&lt;/span&gt;&lt;span style=&quot;white-space: pre&quot;&gt;	&amp;nbsp;&lt;/span&gt;&amp;nbsp; Empleado registra el cliente y&amp;nbsp; procede a hacer la lista" style="text;html=1;strokeColor=#d6b656;fillColor=#fff2cc;align=left;verticalAlign=middle;whiteSpace=wrap;rounded=0;" vertex="1" parent="l0epzVS-xQigdUnoJ-Vp-10">
          <mxGeometry y="100" width="530" height="20" as="geometry" />
        </mxCell>
        <mxCell id="l0epzVS-xQigdUnoJ-Vp-15" value="&amp;nbsp; &amp;nbsp; &amp;nbsp;4&amp;nbsp;&lt;span style=&quot;white-space: pre&quot;&gt;	&lt;/span&gt;&lt;span style=&quot;white-space: pre&quot;&gt;	&lt;/span&gt;&amp;nbsp; &amp;nbsp;Al completar la lista de productos se procede a pagar en efectivo o tarjeta&amp;nbsp; crédito" style="text;html=1;strokeColor=#d79b00;fillColor=#ffe6cc;align=left;verticalAlign=middle;whiteSpace=wrap;rounded=0;" vertex="1" parent="l0epzVS-xQigdUnoJ-Vp-10">
          <mxGeometry y="120" width="530" height="20" as="geometry" />
        </mxCell>
        <mxCell id="l0epzVS-xQigdUnoJ-Vp-16" value="&amp;nbsp; &amp;nbsp; &amp;nbsp;5&amp;nbsp; &amp;nbsp;&amp;nbsp;&lt;span style=&quot;white-space: pre&quot;&gt;	&lt;/span&gt;&lt;span style=&quot;white-space: pre&quot;&gt;	&lt;/span&gt;&amp;nbsp; &amp;nbsp;Se confirma el pago y se genera el recibo" style="text;html=1;strokeColor=#d6b656;fillColor=#fff2cc;align=left;verticalAlign=middle;whiteSpace=wrap;rounded=0;" vertex="1" parent="l0epzVS-xQigdUnoJ-Vp-10">
          <mxGeometry y="140" width="530" height="20" as="geometry" />
        </mxCell>
      </root>
    </mxGraphModel>
  </diagram>
</mxfile>
